<mxfile host="app.diagrams.net" agent="Mozilla/5.0 (Macintosh; Intel Mac OS X 10_15_7) AppleWebKit/605.1.15 (KHTML, like Gecko) Version/18.3 Safari/605.1.15" version="26.1.0">
  <diagram name="Page-1" id="lRAJhXc6hUHrxq0C3aZF">
    <mxGraphModel dx="705" dy="286" grid="1" gridSize="10" guides="1" tooltips="1" connect="1" arrows="1" fold="1" page="1" pageScale="1" pageWidth="850" pageHeight="1100" math="1" shadow="0">
      <root>
        <mxCell id="0" />
        <mxCell id="1" parent="0" />
        <mxCell id="_h_EXnYVfz8i2OCVFXAk-1" value="" style="ellipse;whiteSpace=wrap;html=1;aspect=fixed;" vertex="1" parent="1">
          <mxGeometry x="200" y="160" width="40" height="40" as="geometry" />
        </mxCell>
        <mxCell id="_h_EXnYVfz8i2OCVFXAk-2" value="" style="ellipse;whiteSpace=wrap;html=1;aspect=fixed;" vertex="1" parent="1">
          <mxGeometry x="280" y="160" width="40" height="40" as="geometry" />
        </mxCell>
        <mxCell id="_h_EXnYVfz8i2OCVFXAk-8" value="" style="edgeStyle=orthogonalEdgeStyle;rounded=0;orthogonalLoop=1;jettySize=auto;html=1;" edge="1" parent="1" target="_h_EXnYVfz8i2OCVFXAk-1">
          <mxGeometry relative="1" as="geometry">
            <mxPoint x="280" y="180" as="sourcePoint" />
          </mxGeometry>
        </mxCell>
        <mxCell id="_h_EXnYVfz8i2OCVFXAk-7" value="" style="edgeStyle=orthogonalEdgeStyle;rounded=0;orthogonalLoop=1;jettySize=auto;html=1;" edge="1" parent="1" source="_h_EXnYVfz8i2OCVFXAk-4">
          <mxGeometry relative="1" as="geometry">
            <mxPoint x="320" y="180" as="targetPoint" />
          </mxGeometry>
        </mxCell>
        <mxCell id="_h_EXnYVfz8i2OCVFXAk-4" value="" style="ellipse;whiteSpace=wrap;html=1;aspect=fixed;" vertex="1" parent="1">
          <mxGeometry x="360" y="160" width="40" height="40" as="geometry" />
        </mxCell>
        <mxCell id="_h_EXnYVfz8i2OCVFXAk-6" value="" style="edgeStyle=orthogonalEdgeStyle;rounded=0;orthogonalLoop=1;jettySize=auto;html=1;" edge="1" parent="1" source="_h_EXnYVfz8i2OCVFXAk-5" target="_h_EXnYVfz8i2OCVFXAk-4">
          <mxGeometry relative="1" as="geometry" />
        </mxCell>
        <mxCell id="_h_EXnYVfz8i2OCVFXAk-5" value="" style="ellipse;whiteSpace=wrap;html=1;aspect=fixed;" vertex="1" parent="1">
          <mxGeometry x="440" y="160" width="40" height="40" as="geometry" />
        </mxCell>
        <mxCell id="_h_EXnYVfz8i2OCVFXAk-9" value="$$t = t_0$$" style="text;html=1;align=center;verticalAlign=middle;whiteSpace=wrap;rounded=0;" vertex="1" parent="1">
          <mxGeometry x="430" y="200" width="60" height="30" as="geometry" />
        </mxCell>
        <mxCell id="_h_EXnYVfz8i2OCVFXAk-10" value="$$t = t_0-1$$" style="text;html=1;align=center;verticalAlign=middle;whiteSpace=wrap;rounded=0;" vertex="1" parent="1">
          <mxGeometry x="350" y="200" width="60" height="30" as="geometry" />
        </mxCell>
        <mxCell id="_h_EXnYVfz8i2OCVFXAk-11" value="$$\cdots$$" style="text;html=1;align=center;verticalAlign=middle;whiteSpace=wrap;rounded=0;" vertex="1" parent="1">
          <mxGeometry x="270" y="200" width="60" height="30" as="geometry" />
        </mxCell>
        <mxCell id="_h_EXnYVfz8i2OCVFXAk-12" value="$$t=1$$" style="text;html=1;align=center;verticalAlign=middle;whiteSpace=wrap;rounded=0;" vertex="1" parent="1">
          <mxGeometry x="190" y="200" width="60" height="30" as="geometry" />
        </mxCell>
        <mxCell id="_h_EXnYVfz8i2OCVFXAk-13" value="" style="ellipse;whiteSpace=wrap;html=1;aspect=fixed;dashed=1;" vertex="1" parent="1">
          <mxGeometry x="200" y="250" width="40" height="40" as="geometry" />
        </mxCell>
        <mxCell id="_h_EXnYVfz8i2OCVFXAk-14" value="" style="ellipse;whiteSpace=wrap;html=1;aspect=fixed;dashed=1;" vertex="1" parent="1">
          <mxGeometry x="280" y="250" width="40" height="40" as="geometry" />
        </mxCell>
        <mxCell id="_h_EXnYVfz8i2OCVFXAk-15" value="" style="edgeStyle=orthogonalEdgeStyle;rounded=0;orthogonalLoop=1;jettySize=auto;html=1;dashed=1;" edge="1" parent="1" target="_h_EXnYVfz8i2OCVFXAk-13">
          <mxGeometry relative="1" as="geometry">
            <mxPoint x="280" y="270" as="sourcePoint" />
          </mxGeometry>
        </mxCell>
        <mxCell id="_h_EXnYVfz8i2OCVFXAk-17" value="" style="edgeStyle=orthogonalEdgeStyle;rounded=0;orthogonalLoop=1;jettySize=auto;html=1;" edge="1" parent="1" source="_h_EXnYVfz8i2OCVFXAk-18">
          <mxGeometry relative="1" as="geometry">
            <mxPoint x="320" y="270" as="targetPoint" />
          </mxGeometry>
        </mxCell>
        <mxCell id="_h_EXnYVfz8i2OCVFXAk-18" value="" style="ellipse;whiteSpace=wrap;html=1;aspect=fixed;" vertex="1" parent="1">
          <mxGeometry x="360" y="250" width="40" height="40" as="geometry" />
        </mxCell>
        <mxCell id="_h_EXnYVfz8i2OCVFXAk-19" value="" style="edgeStyle=orthogonalEdgeStyle;rounded=0;orthogonalLoop=1;jettySize=auto;html=1;" edge="1" parent="1" source="_h_EXnYVfz8i2OCVFXAk-20" target="_h_EXnYVfz8i2OCVFXAk-18">
          <mxGeometry relative="1" as="geometry" />
        </mxCell>
        <mxCell id="_h_EXnYVfz8i2OCVFXAk-20" value="" style="ellipse;whiteSpace=wrap;html=1;aspect=fixed;" vertex="1" parent="1">
          <mxGeometry x="440" y="250" width="40" height="40" as="geometry" />
        </mxCell>
        <mxCell id="_h_EXnYVfz8i2OCVFXAk-21" value="$$t = t_0$$" style="text;html=1;align=center;verticalAlign=middle;whiteSpace=wrap;rounded=0;" vertex="1" parent="1">
          <mxGeometry x="510" y="290" width="60" height="30" as="geometry" />
        </mxCell>
        <mxCell id="_h_EXnYVfz8i2OCVFXAk-22" value="$$t = t_0-1$$" style="text;html=1;align=center;verticalAlign=middle;whiteSpace=wrap;rounded=0;" vertex="1" parent="1">
          <mxGeometry x="430" y="290" width="60" height="30" as="geometry" />
        </mxCell>
        <mxCell id="_h_EXnYVfz8i2OCVFXAk-23" value="$$\cdots$$" style="text;html=1;align=center;verticalAlign=middle;whiteSpace=wrap;rounded=0;" vertex="1" parent="1">
          <mxGeometry x="270" y="290" width="60" height="30" as="geometry" />
        </mxCell>
        <mxCell id="_h_EXnYVfz8i2OCVFXAk-24" value="$$t=1$$" style="text;html=1;align=center;verticalAlign=middle;whiteSpace=wrap;rounded=0;" vertex="1" parent="1">
          <mxGeometry x="190" y="290" width="60" height="30" as="geometry" />
        </mxCell>
        <mxCell id="_h_EXnYVfz8i2OCVFXAk-25" value="" style="ellipse;whiteSpace=wrap;html=1;aspect=fixed;" vertex="1" parent="1">
          <mxGeometry x="520" y="250" width="40" height="40" as="geometry" />
        </mxCell>
        <mxCell id="_h_EXnYVfz8i2OCVFXAk-27" value="" style="edgeStyle=orthogonalEdgeStyle;rounded=0;orthogonalLoop=1;jettySize=auto;html=1;" edge="1" parent="1">
          <mxGeometry relative="1" as="geometry">
            <mxPoint x="520" y="269.71" as="sourcePoint" />
            <mxPoint x="480" y="269.71" as="targetPoint" />
            <Array as="points">
              <mxPoint x="501" y="270" />
              <mxPoint x="501" y="270" />
            </Array>
          </mxGeometry>
        </mxCell>
      </root>
    </mxGraphModel>
  </diagram>
</mxfile>
